# xmcd CD database file
#
# Track frame offsets:
#	150
#	21087
#	41225
#	64177
#	80737
#	96830
#	118952
#	140267
#	156785
#	171155
#
# Disc length: 2550 seconds
#
# Revision: 2
# Processed by: cddbd v1.5.2PL0 Copyright (c) Steve Scherf et al.
# Submitted via: CDex 1.70beta2
#
DISCID=8909f40a
DTITLE=梁靜茹 - 一夜長大
DYEAR=1999
DGENRE=Pop
TTITLE0=對不起我愛你
TTITLE1=一夜長大
TTITLE2=彩虹
TTITLE3=迷路
TTITLE4=快樂一整天
TTITLE5=只能抱著你
TTITLE6=轉圈圈
TTITLE7=純情豔陽天
TTITLE8=橡皮筋
TTITLE9=紙條
EXTD=YEAR: 1999
EXTT0=
EXTT1=
EXTT2=
EXTT3=
EXTT4=
EXTT5=
EXTT6=
EXTT7=
EXTT8=
EXTT9=
PLAYORDER=
